<svg id="eP6X057Zkn21" xmlns="http://www.w3.org/2000/svg" xmlns:xlink="http://www.w3.org/1999/xlink" viewBox="0 0 300 300" shape-rendering="geometricPrecision" text-rendering="geometricPrecision"><defs><linearGradient id="eP6X057Zkn25-fill" x1="0" y1="0.5" x2="1" y2="0.5" spreadMethod="pad" gradientUnits="objectBoundingBox" gradientTransform="translate(0 0)"><stop id="eP6X057Zkn25-fill-0" offset="0%" stop-color="#e68826"/><stop id="eP6X057Zkn25-fill-1" offset="100%" stop-color="#fa9d56"/></linearGradient></defs><polygon points="0,-46.084475 43.82894,-14.240886 27.087775,37.283124 -27.087775,37.283124 -43.82894,-14.240886 0,-46.084475" transform="matrix(-.917968-.006416 0.006387-.913838 129.608631 132.926905)" opacity="0.93" fill="#e6a25a" stroke-width="0"/><polygon points="0,-53.429888 50.814843,-16.510743 31.4053,43.225687 -31.4053,43.225687 -50.814843,-16.510743 0,-53.429888" transform="matrix(.786685 0.010847-.010216 0.740961 130.014147 132.773654)" opacity="0.88" fill="#f18a1b" stroke-width="0"/><polygon points="0,-53.668629 51.041899,-16.584518 31.545628,43.418833 -31.545628,43.418833 -51.041899,-16.584518 0,-53.668629" transform="matrix(.780832 0.003668-.003754 0.799018 130.046184 135.280776)" opacity="0.83" fill="#ffd494" stroke-width="0"/><polygon points="0,-30 28.531695,-9.27051 17.633558,24.27051 -17.633558,24.27051 -28.531695,-9.27051 0,-30" transform="matrix(1.072346 0 0 1.038015 129.572543 134.34677)" fill="url(#eP6X057Zkn25-fill)" stroke-width="0"/></svg>
